<svg height="512" viewBox="0 0 64 64" width="512" xmlns="http://www.w3.org/2000/svg"><path d="m50.89 26.21a2.77 2.77 0 0 0 .11-.71 2.5 2.5 0 0 0 -2.5-2.5 2 2 0 0 0 -.61.09 4 4 0 0 0 -3.89-3.09h-.19a2.89 2.89 0 0 0 .19-1 3 3 0 0 0 -5.42-1.76 4 4 0 0 0 -7.08-.14 4 4 0 0 0 -7 0 6 6 0 0 0 -9.41 3.9h-.09a4 4 0 0 0 -4 4v.14a4 4 0 0 0 -3 3.86 3.74 3.74 0 0 0 .15 1h-.15a4 4 0 0 0 -2 7.44c0 .52-.07 1-.07 1.56-.01 11.6 11.22 21 25.07 21s25.08-9.4 25.08-21a18.84 18.84 0 0 0 -5.19-12.79z" fill="#f9e109"/><path d="m8 33h.15a3.74 3.74 0 0 1 -.15-1 4 4 0 0 1 3-3.86c0-.05 0-.09 0-.14a4 4 0 0 1 4-4h.09a6 6 0 0 1 9.4-3.89 4 4 0 0 1 7 0 4 4 0 0 1 7.08.14 3 3 0 0 1 5.43 1.75 2.89 2.89 0 0 1 -.19 1h.19a4 4 0 0 1 3.89 3.09 2 2 0 0 1 .61-.09 2.5 2.5 0 0 1 2.5 2.5 2.77 2.77 0 0 1 -.11.71 19 19 0 0 1 5.11 11.32c0-.5.07-1 .07-1.53a18.84 18.84 0 0 0 -5.19-12.79 2.77 2.77 0 0 0 .12-.71 2.5 2.5 0 0 0 -2.5-2.5 2 2 0 0 0 -.61.09 4 4 0 0 0 -3.89-3.09h-.19a2.89 2.89 0 0 0 .19-1 3 3 0 0 0 -5.42-1.76 4 4 0 0 0 -7.08-.14 4 4 0 0 0 -7 0 6 6 0 0 0 -9.41 3.9h-.09a4 4 0 0 0 -4 4v.14a4 4 0 0 0 -3 3.86 3.74 3.74 0 0 0 .15 1h-.15a4 4 0 0 0 -4 4 3.94 3.94 0 0 0 .3 1.5 4 4 0 0 1 3.7-2.5z" fill="#f9ed86"/><path d="m6 40.44s0 .06 0 .09z" fill="#f9ed86"/><g fill="#fcbc04"><path d="m15.13 30a4 4 0 0 0 7.36 1 2.92 2.92 0 0 0 .51 0 3 3 0 0 0 3-3 1 1 0 0 0 -2 0 1 1 0 0 1 -1.54.84 1 1 0 0 0 -1.52.61 2 2 0 0 1 -3.94-.51s0-.12 0-.13a1 1 0 0 0 -.46-.95 1 1 0 0 0 -1 0 1 1 0 0 1 -1.54-.86 1 1 0 0 0 -2 0 3 3 0 0 0 3.13 3z"/><path d="m34 27a1 1 0 0 0 -2 0 5 5 0 0 0 9.59 2 4 4 0 0 0 4.41-4 1 1 0 0 0 -2 0 2 2 0 0 1 -2.72 1.86 1 1 0 0 0 -.84.05 1 1 0 0 0 -.5.68 3 3 0 0 1 -5.94-.59z"/><path d="m43 35a1 1 0 0 0 -2 0 4 4 0 0 0 8 0 1 1 0 0 0 -2 0 2 2 0 0 1 -4 0z"/><path d="m18 24a1 1 0 0 0 1-1 1 1 0 0 1 2 0 1 1 0 0 0 2 0 3 3 0 0 0 -6 0 1 1 0 0 0 1 1z"/><path d="m27 35.87a1 1 0 0 0 1.36-.37 3 3 0 0 1 4.1-1.1 1 1 0 1 0 1-1.73 5 5 0 0 0 -6.83 1.83 1 1 0 0 0 .37 1.37z"/><path d="m33.59 22.59a2 2 0 0 1 2.82 0 1 1 0 0 0 .71.29 1 1 0 0 0 .71-.29 1 1 0 0 0 0-1.42 4.1 4.1 0 0 0 -5.66 0 1 1 0 1 0 1.42 1.42z"/><path d="m19 38a1 1 0 0 0 -1-1 3 3 0 0 1 -3-3 1 1 0 0 0 -2 0 5 5 0 0 0 4.06 4.91 7 7 0 0 0 2.47 4.48 1 1 0 0 0 .64.23 1 1 0 0 0 .77-.36 1 1 0 0 0 -.13-1.41 5 5 0 0 1 -1.81-3.85z"/><path d="m31 40a3.11 3.11 0 0 1 -1.22-.26 1 1 0 0 0 -1.3.47 5 5 0 0 1 -3.82 2.79 1 1 0 0 0 .12 2h.14a6.94 6.94 0 0 0 4.91-3.07 5.2 5.2 0 0 0 1.17.07 5 5 0 0 0 5-4.32 3.5 3.5 0 0 0 2-3.18 1 1 0 0 0 -2 0 1.5 1.5 0 0 1 -1.2 1.5 1 1 0 0 0 -.8 1 3 3 0 0 1 -3 3z"/><path d="m36 46a4 4 0 0 0 2.83-1.17 1 1 0 0 0 -1.42-1.42 2 2 0 0 1 -2.82 0 1 1 0 0 0 -1.42 1.42 4 4 0 0 0 2.83 1.17z"/></g><path d="m38 52.83c-5.69-1.54-9-7.83-13-8.83-12-3-17.36-6.78-19.73-15.54a20 20 0 0 0 -2.27 9.21c0 12.88 12.54 23.33 28 23.33 11.19 0 20.85-5.47 25.33-13.38-5.28 3.29-10.33 7.38-18.33 5.21z" fill="#a1d51c"/><path d="m38 52.83a11.44 11.44 0 0 1 -3-1.35 32.9 32.9 0 0 1 -10 1.52 30.8 30.8 0 0 1 -20.27-7.25c3.95 8.9 14.27 15.25 26.27 15.25 11.19 0 20.85-5.47 25.33-13.38-5.28 3.29-10.33 7.38-18.33 5.21z" fill="#7ab92d"/><path d="m33.06 57h1.95.7a1 1 0 1 0 0-2h-.71c-.47 0-.93 0-1.4 0l-2.72-5.41a1 1 0 1 0 -1.78.9l2.17 4.34a32.21 32.21 0 0 1 -9.65-2.69l-2.69-7.44a1 1 0 0 0 -1.88.68l2 5.43a32.22 32.22 0 0 1 -9.24-7.9l-2-2.49a1 1 0 0 0 -1.4-.16 1 1 0 0 0 -.16 1.41l2 2.49a34.45 34.45 0 0 0 8.75 7.75l-4 .09a1 1 0 0 0 0 2l7.57-.17a34.57 34.57 0 0 0 7 2.36z" fill="#7ab92d"/><path d="m51.82 20.39a31.53 31.53 0 0 1 1 7.94c0 5.68-7.19 10-9.83 14.67-4.66 8.21-2 13-16.93 17.28a33.44 33.44 0 0 0 6.94.72c15.46 0 28-10.45 28-23.33 0-6.85-3.54-13.01-9.18-17.28z" fill="#c4f236"/><path d="m52.4 20.85a20.55 20.55 0 0 1 4.6 12.82c0 11.13-9.36 20.44-21.89 22.77a31 31 0 0 1 -9 3.84 33.44 33.44 0 0 0 6.89.72c15.46 0 28-10.45 28-23.33 0-6.61-3.3-12.57-8.6-16.82z" fill="#a1d51c"/><path d="m60.92 36a1 1 0 0 0 -.52.18l-6 4.52a46 46 0 0 0 2.6-8.5 1 1 0 1 0 -2-.4 44.32 44.32 0 0 1 -2.48 8.2l-.52-3.17a1 1 0 1 0 -2 .34l1 6.09a45.54 45.54 0 0 1 -5.34 8.19l-.66-4.6a1 1 0 0 0 -2 .3l1 6.28c-1 1-2 2.07-3.06 3l-3.87 3.46a1 1 0 0 0 -.3.86c1-.1 1.9-.25 2.83-.44l2.67-2.31a46.58 46.58 0 0 0 3.37-3.37l7.79-3.68a1 1 0 1 0 -.86-1.8l-3.94 1.85a48 48 0 0 0 4-6.43l.08-.05 8.29-6.25c0-.2 0-.4 0-.6 0-.56 0-1.1-.08-1.67z" fill="#7ab92d"/><path d="m49.88 49.18a49.46 49.46 0 0 0 2.76-4.65l.08-.05 1.9-1.43a20 20 0 0 0 1.51-3.64l-1.74 1.31a45.76 45.76 0 0 0 2.55-8.35c0-.28 0-.55-.07-.83a1 1 0 0 0 -.67-.54 1 1 0 0 0 -1.2.8 44.32 44.32 0 0 1 -2.48 8.2l-.52-3.17a1 1 0 1 0 -2 .34l1 6.09a45.54 45.54 0 0 1 -5.34 8.19l-.66-4.6a1 1 0 0 0 -2 .3l1 6.22a27.43 27.43 0 0 0 5.88-4.19z" fill="#a1d51c"/></svg>