<svg id="Capa_1" enable-background="new 0 0 512 512" height="512" viewBox="0 0 512 512" width="512" xmlns="http://www.w3.org/2000/svg"><g><path d="m449.996 276.885-56.639-56.639 28.675-28.676 56.639 56.64c8.035-6.518 19.859-6.041 27.336 1.436 7.99 7.99 7.99 20.944 0 28.934-5.575 5.575-13.564 7.247-20.6 5.042 2.205 7.036.533 15.025-5.042 20.6-7.99 7.99-20.944 7.99-28.933 0-7.477-7.478-7.954-19.302-1.436-27.337z" fill="#fbf1cf"/><path d="m468.685 238.223-46.653-46.653-28.675 28.676 46.653 46.653c6.278-2.737 12.056-6.643 17.044-11.631 4.988-4.989 8.894-10.767 11.631-17.045z" fill="#f5e2a2"/><path d="m412.496 130.175c26.889 26.889 9.736 38.137 31.447 59.848 14.396 14.396 14.396 37.736 0 52.133-14.396 14.396-37.737 14.396-52.133 0-21.711-21.711-32.959-4.557-59.848-31.447-22.239-22.239-22.239-58.295 0-80.534s58.295-22.239 80.534 0z" fill="#eda749"/><path d="m276.885 449.996-56.639-56.639-28.676 28.675 56.64 56.639c-6.518 8.035-6.041 19.859 1.436 27.336 7.99 7.99 20.944 7.99 28.934 0 5.575-5.575 7.247-13.564 5.042-20.6 7.036 2.205 15.025.533 20.6-5.042 7.99-7.99 7.99-20.944 0-28.933-7.478-7.477-19.302-7.954-27.337-1.436z" fill="#fbf1cf"/><path d="m266.899 440.01-46.653-46.653-28.676 28.675 46.653 46.653c6.278-2.737 12.056-6.643 17.044-11.631 4.989-4.988 8.895-10.766 11.632-17.044z" fill="#f5e2a2"/><path d="m130.175 412.496c26.889 26.889 38.137 9.736 59.848 31.447 14.396 14.396 37.736 14.396 52.133 0 14.396-14.396 14.396-37.737 0-52.133-21.711-21.711-4.557-32.958-31.447-59.848-22.239-22.239-58.295-22.239-80.534 0s-22.239 58.295 0 80.534z" fill="#eed076"/><path d="m67.066 184.668c-19.091 2.991-32.142 20.893-29.151 39.984l4.847 30.935-21.115 1.237c-11.49.66-20.918 9.839-21.608 21.608-.743 12.676 8.932 23.554 21.608 24.297l50.835 2.978c12.114.669 23.11-7.932 25.029-20.174 2.903-18.525 6.855-43.747 9.539-60.879 3.616-23.821-16.85-43.61-39.984-39.986z" fill="#eed076"/><path d="m184.668 67.066c2.991-19.091 20.893-32.142 39.984-29.151l30.935 4.847 1.237-21.115c.66-11.49 9.839-20.918 21.608-21.608 12.676-.742 23.554 8.932 24.297 21.608l2.978 50.835c.669 12.114-7.932 23.11-20.175 25.029-18.525 2.903-43.747 6.855-60.879 9.539-23.82 3.616-43.609-16.85-39.985-39.984z" fill="#eda749"/><path d="m92.043 92.043c35.854-35.854 87.265-44.938 122.789-9.413 39.814 39.814 86.015 8.034 141.109 63.128 53.498 53.498 49.815 143.918-8.225 201.958s-148.46 61.723-201.958 8.225c-55.094-55.094-23.315-101.296-63.128-141.109-35.524-35.524-26.441-86.934 9.413-122.789z" fill="#eed076"/><path d="m308.325 376.637c-114.657-33.095-207.015-209.673-185.686-306.825-10.882 5.39-21.266 12.902-30.596 22.231-35.854 35.854-44.938 87.265-9.413 122.789 39.814 39.814 8.034 86.015 63.128 141.109 42.477 42.477 108.227 48.901 162.567 20.696z" fill="#eda749"/><g><ellipse cx="158.233" cy="107.82" fill="#eda749" rx="7.369" ry="7.369" transform="matrix(.707 -.707 .707 .707 -29.895 143.468)"/><ellipse cx="246.067" cy="348.649" fill="#eed076" rx="7.369" ry="7.369" transform="matrix(.973 -.231 .231 .973 -73.732 66.1)"/><ellipse cx="328.467" cy="295.535" fill="#eda749" rx="7.369" ry="7.369" transform="matrix(.987 -.161 .161 .987 -43.187 56.57)"/><ellipse cx="208.191" cy="136.293" fill="#eda749" rx="7.369" ry="7.369" transform="matrix(.973 -.229 .229 .973 -25.681 51.305)"/><ellipse cx="113.496" cy="184.238" fill="#eed076" rx="7.369" ry="7.369" transform="matrix(.353 -.936 .936 .353 -98.944 225.401)"/></g><g><g><ellipse cx="196.574" cy="324.423" fill="#fff" rx="33.357" ry="26.564" transform="matrix(.707 -.707 .707 .707 -171.827 234.021)"/><ellipse cx="324.423" cy="196.574" fill="#fff" rx="33.357" ry="26.564" transform="matrix(.707 -.707 .707 .707 -43.977 286.979)"/><ellipse cx="246.067" cy="246.067" fill="#4e5660" rx="17.707" ry="19.814" transform="matrix(.707 -.707 .707 .707 -101.924 246.072)"/></g><g fill="#4e5660"><path d="m179.833 303.035c-1.919 0-3.839-.732-5.303-2.197-8.711-8.711-8.711-22.884 0-31.595 8.711-8.71 22.884-8.711 31.595 0 2.929 2.929 2.929 7.678 0 10.606-2.929 2.929-7.678 2.929-10.606 0-2.862-2.862-7.52-2.862-10.382 0s-2.862 7.52 0 10.382c2.929 2.929 2.929 7.678 0 10.607-1.465 1.464-3.385 2.197-5.304 2.197z"/><path d="m273.642 209.226c-1.919 0-3.839-.732-5.303-2.197-4.22-4.22-6.543-9.83-6.543-15.798s2.324-11.578 6.543-15.798c8.711-8.711 22.885-8.71 31.595.001 2.929 2.929 2.929 7.678 0 10.606-2.929 2.929-7.678 2.929-10.607 0-1.387-1.387-3.23-2.15-5.191-2.15s-3.805.764-5.191 2.15c-1.387 1.387-2.15 3.23-2.15 5.191s.763 3.805 2.15 5.192c2.929 2.929 2.929 7.678 0 10.606-1.464 1.465-3.383 2.197-5.303 2.197z"/></g></g></g></svg>