<svg height="512pt" viewBox="-25 0 512 512" width="512pt" xmlns="http://www.w3.org/2000/svg"><path d="m135.246094 152.414062c-11.484375 0-20.792969-9.304687-20.792969-20.789062 0-49.648438-40.394531-90.042969-90.042969-90.042969-11.484375 0-20.792968-9.308593-20.792968-20.792969.003906-11.480468 9.3125-20.789062 20.792968-20.789062 72.578125 0 131.625 59.046875 131.625 131.625 0 11.484375-9.308594 20.789062-20.789062 20.789062zm0 0" fill="#8ec15d"/><path d="m107.957031 98.046875c4.1875 10.382813 6.496094 21.714844 6.496094 33.578125 0 11.480469 9.308594 20.789062 20.792969 20.789062 11.480468 0 20.789062-9.304687 20.789062-20.789062 0-9.699219-1.0625-19.152344-3.0625-28.257812-6.753906 4.167968-12.757812 8.824218-17.726562 13.808593-7.207032-7.226562-16.589844-13.777343-27.289063-19.128906zm0 0" fill="#57b33b"/><path d="m132.992188 153.6875c5.867187 16.121094 36.757812 19.675781 68.992187 7.941406 32.273437-11.746094 54.984375-34.910156 66.421875-48.867187 4.402344-5.371094 1.449219-13.480469-5.371094-14.765625-17.734375-3.335938-50.023437-6.484375-82.296875 5.261718-32.234375 11.734376-53.613281 34.3125-47.746093 50.429688zm0 0" fill="#b4de87"/><path d="m158.417969 157.390625c-2.5 0-4.945313-1.25-6.367188-3.527344-2.195312-3.511719-1.128906-8.140625 2.382813-10.335937 21.851562-13.664063 39.332031-20.867188 63.945312-29.375 3.914063-1.351563 8.1875.726562 9.539063 4.640625 1.355469 3.914062-.722657 8.183593-4.636719 9.535156-23.570312 8.148437-40.253906 15.011719-60.894531 27.917969-1.238281.773437-2.613281 1.144531-3.96875 1.144531zm0 0" fill="#92d18a"/><path d="m137.496094 153.6875c-5.867188 16.121094-36.757813 19.675781-68.992188 7.941406-32.273437-11.746094-54.984375-34.910156-66.421875-48.867187-4.402343-5.371094-1.449219-13.480469 5.375-14.765625 17.734375-3.335938 50.019531-6.484375 82.292969 5.261718 32.234375 11.734376 53.613281 34.3125 47.746094 50.429688zm0 0" fill="#b4de87"/><path d="m112.074219 157.390625c-1.359375 0-2.734375-.371094-3.96875-1.144531-20.640625-12.90625-37.328125-19.765625-60.898438-27.914063-3.914062-1.355469-5.992187-5.625-4.636719-9.539062 1.351563-3.914063 5.625-5.992188 9.539063-4.636719 24.613281 8.507812 42.09375 15.707031 63.945313 29.371094 3.511718 2.199218 4.578124 6.824218 2.382812 10.335937-1.421875 2.277344-3.863281 3.527344-6.363281 3.527344zm0 0" fill="#92d18a"/><path d="m12.992188 249.703125c1.617187 145.125 126.242187 262.296875 279.738281 262.296875 56.964843 0 109.945312-16.136719 154.144531-43.851562 28.796875-18.058594 15.265625-60.324219-19.261719-60.066407-.460937.003907-.917969.007813-1.375.007813-93.957031 0-170.121093-72.191406-170.121093-161.242188 0-63.414062-54.050782-114.867187-120.871094-115.222656-68.0625-.363281-122.972656 53.574219-122.253906 118.078125zm0 0" fill="#eb8db3"/><path d="m128.097656 131.796875c-64.714844 3.289063-115.800781 55.679687-115.105468 117.90625 1.617187 145.125 126.242187 262.296875 279.738281 262.296875 51.519531 0 99.785156-13.203125 141.238281-36.230469-323.097656 2.558594-409.085938-277.480469-305.871094-343.972656zm0 0" fill="#e06576"/><path d="m89.917969 278.4375c0-11.65625-11.867188-21.109375-26.503907-21.109375-14.636718 0-26.503906 9.453125-26.503906 21.109375s11.867188 21.105469 26.503906 21.105469c14.636719 0 26.503907-9.449219 26.503907-21.105469zm0 0" fill="#fff"/><path d="m233.582031 278.4375c0-11.65625-11.867187-21.109375-26.503906-21.109375-14.640625 0-26.507813 9.453125-26.507813 21.109375s11.867188 21.105469 26.507813 21.105469c14.636719 0 26.503906-9.449219 26.503906-21.105469zm0 0" fill="#fff"/><g fill="#495059"><path d="m67.84375 261.015625c-4.140625 0-7.5-3.359375-7.5-7.5v-11.375c0-4.144531 3.359375-7.5 7.5-7.5 4.144531 0 7.5 3.355469 7.5 7.5v11.375c0 4.140625-3.355469 7.5-7.5 7.5zm0 0"/><path d="m156.613281 262.21875c0-13.203125-9.566406-23.910156-21.367187-23.910156-11.800782 0-21.371094 10.707031-21.371094 23.910156 0 13.207031 9.570312 23.914062 21.371094 23.914062 11.800781 0 21.367187-10.707031 21.367187-23.914062zm0 0"/><path d="m202.644531 261.015625c-4.140625 0-7.5-3.359375-7.5-7.5v-11.375c0-4.144531 3.359375-7.5 7.5-7.5 4.144531 0 7.5 3.355469 7.5 7.5v11.375c0 4.140625-3.355469 7.5-7.5 7.5zm0 0"/></g></svg>