<svg height="512pt" viewBox="0 -37 512 512" width="512pt" xmlns="http://www.w3.org/2000/svg"><path d="m512 273.199219c0 90.714843-73.539062 164.25-164.25 164.25-90.714844 0-164.253906-73.535157-164.253906-164.25 0-90.714844 73.539062-273.199219 164.253906-273.199219 90.710938 0 164.25 182.484375 164.25 273.199219zm0 0" fill="#fab658"/><path d="m466.382812 386.796875c-27.0625-15.054687-44.761718-35.714844-56.054687-53.78125-11.46875-18.347656-17.410156-39.550781-18.011719-61.175781-3.785156-135.542969-95.019531-195.082032-132.964844-214.039063-45.613281 61.324219-75.851562 157.230469-75.851562 215.398438 0 90.710937 73.535156 164.25 164.25 164.25 46.636719 0 88.734375-19.4375 118.632812-50.652344zm0 0" fill="#f69e18"/><path d="m272.421875 192.207031c0 60.402344-48.96875 109.371094-109.375 109.371094-60.402344 0-109.371094-48.96875-109.371094-109.371094 0-60.40625 48.96875-109.371093 109.371094-109.371093 60.40625 0 109.375 48.964843 109.375 109.371093zm0 0" fill="#f9ee80"/><path d="m268.167969 163.21875-32.753907 44.996094-43.273437-29.164063c-15.929687-10.734375-37.359375-7.917969-49.976563 6.570313l-41.585937 47.757812-51.066406-48.179687c-12.542969-11.835938-33.125-5.941407-37.605469 10.710937-7.679688 28.519532-11.90625 55.539063-11.90625 77.289063 0 90.710937 73.539062 164.25 164.25 164.25 90.714844 0 164.253906-73.535157 164.253906-164.25 0-28.382813-7.203125-65.75-19.875-103.703125-5.933594-17.757813-29.441406-21.414063-40.460937-6.277344zm0 0" fill="#fdcb89"/><path d="m106.75 313.996094c0-9.351563-9.519531-16.933594-21.265625-16.933594-11.742187 0-21.261719 7.582031-21.261719 16.933594 0 9.351562 9.519532 16.933594 21.261719 16.933594 11.746094 0 21.265625-7.582032 21.265625-16.933594zm0 0" fill="#fdb2db"/><path d="m264.28125 313.996094c0-9.351563-9.523438-16.933594-21.265625-16.933594s-21.265625 7.582031-21.265625 16.933594c0 9.351562 9.523438 16.933594 21.265625 16.933594s21.265625-7.582032 21.265625-16.933594zm0 0" fill="#fdb2db"/><g fill="#454545"><path d="m169.527344 295.695312c-1.730469 2.542969-4.253906 2.847657-5.277344 2.847657s-3.589844-.277344-5.277344-2.847657c-2.34375-3.566406-7.132812-4.558593-10.699218-2.214843-3.566407 2.34375-4.558594 7.132812-2.214844 10.699219 4.035156 6.148437 10.835937 9.816406 18.191406 9.816406s14.15625-3.667969 18.191406-9.816406c2.34375-3.566407 1.351563-8.355469-2.214844-10.699219-1.308593-.859375-7.089843-3.082031-10.699218 2.214843zm0 0"/><path d="m103.039062 299.316406c-.960937-.804687-1.921874-1.019531-2.460937-1.019531s-1.570313.132813-2.457031 1.019531c-3.019532 3.015625-7.914063 3.015625-10.925782 0-3.019531-3.019531-3.019531-7.910156-.003906-10.929687 3.578125-3.574219 8.332032-5.542969 13.386719-5.542969 5.058594 0 9.8125 1.96875 13.386719 5.542969 3.015625 3.019531 3.015625 7.910156 0 10.929687-1.507813 1.507813-6.050782 4.082032-10.925782 0zm0 0"/><path d="m230.382812 299.316406c-.960937-.804687-1.921874-1.019531-2.460937-1.019531s-1.570313.132813-2.457031 1.019531c-3.019532 3.015625-7.914063 3.015625-10.925782 0-3.019531-3.019531-3.019531-7.910156-.003906-10.929687 3.578125-3.574219 8.332032-5.542969 13.386719-5.542969 5.058594 0 9.8125 1.96875 13.386719 5.542969 3.015625 3.019531 3.015625 7.910156 0 10.929687-1.507813 1.507813-6.050782 4.082032-10.925782 0zm0 0"/></g></svg>