<svg id="Capa_1" enable-background="new 0 0 497 497" height="512" viewBox="0 0 497 497" width="512" xmlns="http://www.w3.org/2000/svg"><g><path d="m78.158 372.633c-30.846 4.992-70.193 1.084-76.806-48.496-8.353-62.636 23.278-92.875 59.961-72.56z" fill="#5c586f"/><path d="m116.282 361.675s-17.083 7.547-38.125 10.958c-18.048-5.091-33.153-18.456-37.031-47.502-4.962-37.26 4.216-63.054 20.186-73.555 12.171 6.722 24.889 19.013 36.892 37.518z" fill="#f75747"/><path d="m138.556 158.185c-5.25-8.522-8.591-18.774-8.373-30.985.597-33.67 25.705-40.899 43.564-41.774 12.639-.617 24.72-5.419 34.127-13.882l.776-.696c16.417-14.777 40.133-18.495 60.11-9.079 22.224 10.471 35.828 28.708 44.071 45.533z" fill="#5c586f"/><path d="m324.884 145.765-131.219 50.017s-37.876-9.536-55.109-37.598c5.191-32.815 32.059-38.791 51.25-38.721 14.389.06 28.38-4.664 39.567-13.713l.915-.746c19.52-15.781 46.656-18.585 68.771-6.712 5.002 2.685 9.586 5.718 13.772 9.009 9.925 20.267 12.053 38.464 12.053 38.464z" fill="#f75747"/><path d="m249.699 438.998c-76.876-6.314-168.18-36.941-168.18-146.761 0-109.84 91.324-140.447 168.22-146.761z" fill="#ffa9a0"/><path d="m111.519 292.237c0-76.297 38.007-117.083 85.626-138.253-60.594 15.475-115.626 52.989-115.626 138.253 0 85.265 55.04 122.786 115.633 138.26-47.62-21.172-85.633-61.963-85.633-138.26z" fill="#fc7a6e"/><path d="m353.91 149.146v286.193s-48.287 8.263-104.211 3.659c-57.217-20.206-98.543-78.278-98.543-146.761 0-68.493 41.346-126.575 98.583-146.761 55.904-4.584 104.171 3.67 104.171 3.67z" fill="#e8e8e8"/><circle cx="353.907" cy="292.242" fill="#ffa9a0" r="143.093"/><g><g fill="#fc7a6e"><ellipse cx="290.283" cy="312.339" rx="29.19" ry="23.245"/><ellipse cx="448.502" cy="312.339" rx="29.19" ry="23.245"/></g><g><path d="m307.295 297.462c-4.143 0-7.5-3.358-7.5-7.5v-11.932c0-4.142 3.357-7.5 7.5-7.5s7.5 3.358 7.5 7.5v11.933c0 4.141-3.357 7.499-7.5 7.499z" fill="#423e4f"/></g><g><path d="m431.491 297.462c-4.143 0-7.5-3.358-7.5-7.5v-11.932c0-4.142 3.357-7.5 7.5-7.5s7.5 3.358 7.5 7.5v11.933c0 4.141-3.358 7.499-7.5 7.499z" fill="#423e4f"/></g><g><path d="m369.393 304.565c-8.442 0-16.471-3.656-22.026-10.031-2.722-3.123-2.396-7.86.727-10.582 3.122-2.721 7.859-2.396 10.582.727 2.706 3.105 6.612 4.886 10.718 4.886 4.104 0 8.012-1.781 10.719-4.886 2.721-3.123 7.46-3.447 10.581-.726 3.123 2.722 3.447 7.459.726 10.582-5.557 6.374-13.586 10.03-22.027 10.03z" fill="#423e4f"/></g></g></g></svg>