<svg id="Capa_1" enable-background="new 0 0 502 502" height="512" viewBox="0 0 502 502" width="512" xmlns="http://www.w3.org/2000/svg" xmlns:xlink="http://www.w3.org/1999/xlink"><linearGradient id="lg1"><stop offset=".0212" stop-color="#fd748d"/><stop offset="1" stop-color="#f3385d"/></linearGradient><linearGradient id="SVGID_1_" gradientUnits="userSpaceOnUse" x1="251" x2="251" xlink:href="#lg1" y1="500.695" y2="277.081"/><linearGradient id="SVGID_2_" gradientUnits="userSpaceOnUse" x1="251" x2="251" xlink:href="#lg1" y1="339.731" y2="99.09"/><g><path d="m502 282.59c0 88.606-71.829 160.435-160.435 160.435h-238.674c-56.825 0-102.891-46.066-102.891-102.891v-63.18l502-57.544z" fill="url(#SVGID_1_)"/><path d="m133.375 373.892-133.375-96.938v63.18c0 8.345 1.001 16.455 2.876 24.224 24.377 27.86 60.175 45.486 100.015 45.486h18.8c10.977 0 19.875-8.898 19.875-19.875-.001-6.361-3.045-12.337-8.191-16.077z" fill="#f7496e"/><path d="m341.566 379.845c88.605 0 160.434-71.829 160.434-160.435s-71.829-160.435-160.434-160.435c-148.736 0-184.667 115.088-238.675 115.088-56.825 0-102.891 46.066-102.891 102.891s46.066 102.891 102.891 102.891z" fill="#ffdde3"/><path d="m102.891 339.731c-34.615 0-62.777-28.161-62.777-62.777s28.161-62.777 62.777-62.777c35.91 0 62.045-23.955 87.318-47.121 34.756-31.858 74.149-67.967 151.357-67.967 66.345 0 120.32 53.976 120.32 120.32 0 66.345-53.975 120.32-120.32 120.32h-238.675z" fill="url(#SVGID_2_)"/><g><path d="m421.843 262.773c-5.098-2.124-7.51-7.978-5.387-13.076 2.979-7.152 4.788-14.6 5.378-22.134.431-5.506 5.243-9.618 10.75-9.189 5.506.431 9.62 5.244 9.189 10.75-.755 9.646-3.061 19.155-6.854 28.263-2.123 5.097-7.978 7.509-13.076 5.386z" fill="#ffdde3"/></g><g><path d="m419.992 200.884c-.694-2.89-1.557-5.784-2.566-8.604-1.861-5.2.846-10.924 6.046-12.784 5.2-1.861 10.924.846 12.784 6.046 1.25 3.495 2.321 7.085 3.183 10.672 1.29 5.37-2.019 10.769-7.389 12.059-5.394 1.295-10.774-2.043-12.058-7.389z" fill="#ffdde3"/></g><ellipse cx="341.565" cy="176.242" fill="#ffdde3" rx="62.712" ry="41.522"/><g><ellipse cx="149.645" cy="304.574" fill="#fdaece" rx="17.226" ry="13.843"/><ellipse cx="352.355" cy="304.574" fill="#fdaece" rx="17.226" ry="13.843"/><circle cx="179.177" cy="270.417" fill="#fff" r="34.157"/><circle cx="322.823" cy="270.417" fill="#fff" r="34.157"/><g fill="#383842"><circle cx="179.177" cy="270.417" r="20.358"/><circle cx="322.823" cy="270.417" r="20.358"/></g><g><path d="m251 304.889c-5.867 0-11.733-2.219-16.52-6.655-2.025-1.878-2.145-5.041-.268-7.066 1.878-2.025 5.043-2.144 7.066-.268 5.723 5.307 13.719 5.307 19.441 0 2.023-1.875 5.189-1.758 7.066.268s1.758 5.188-.268 7.066c-4.784 4.436-10.65 6.655-16.517 6.655z" fill="#383842"/></g></g></g></svg>