<svg height="512pt" viewBox="-22 0 512 512" width="512pt" xmlns="http://www.w3.org/2000/svg"><path d="m123.515625 450.269531v42.65625c0 10.535157 8.539063 19.074219 19.074219 19.074219h181.667968c10.535157 0 19.078126-8.542969 19.078126-19.074219v-42.65625l-109.914063-21.074219zm0 0" fill="#ffd46a"/><path d="m164.722656 492.925781v-42.65625l89.308594-17.121093-20.605469-3.953126-109.910156 21.074219v42.65625c0 10.535157 8.539063 19.074219 19.074219 19.074219h41.207031c-10.535156 0-19.074219-8.542969-19.074219-19.074219zm0 0" fill="#ffa92d"/><path d="m456.070312 122.828125-364.851562 5.882813c-5.054688.082031-9.109375 4.203124-9.109375 9.257812v14.945312c0 5.054688 4.054687 9.175782 9.109375 9.257813l364.851562 5.882813c6.367188.105468 11.582032-5.03125 11.582032-11.398438v-22.429688c0-6.367187-5.214844-11.5-11.582032-11.398437zm0 0" fill="#454f59"/><path d="m129.347656 349.613281-38.5625-22.203125-16.929687-60.707031 16.929687-60.113281v-63.21875l-16.929687-53.894532 16.929687-59.074218 38.5625-30.402344 17.375 21.074219 30.171875-21.074219 17.402344 19 30.144531-19 11.910156 23.144531 35.636719-23.144531 8.984375 23.144531 38.5625-23.144531 8.984375 24.183594 38.5625-24.183594 8.984375 28.328125-8.984375 37.3125v44.5625l15.621094 47.675781v43.527344l-15.621094 26.949219v121.257812zm0 0" fill="#faeed0"/><path d="m109.3125 218.507812c12.71875-27.746093 12.71875-59.65625 0-87.402343-12.722656-27.746094-12.722656-59.660157 0-87.402344l20.035156-43.703125h-29.234375c-11.160156 0-21.292969 6.503906-25.945312 16.644531l-12.40625 27.058594c-12.71875 27.742187-12.71875 59.65625 0 87.402344 12.722656 27.746093 12.722656 59.65625 0 87.402343-12.71875 27.746094-12.71875 59.660157 0 87.40625l20.039062 43.699219h47.546875l-20.035156-43.699219c-12.722656-27.746093-12.722656-59.660156 0-87.40625zm0 0" fill="#f6d8a0"/><path d="m176.894531 0-20.035156 43.703125c-12.722656 27.742187-12.722656 59.65625 0 87.402344 12.71875 27.746093 12.71875 59.65625 0 87.402343-12.722656 27.746094-12.722656 59.660157 0 87.40625l20.035156 43.699219h-47.546875l-20.035156-43.699219c-12.722656-27.746093-12.722656-59.660156 0-87.40625 12.71875-27.746093 12.71875-59.65625 0-87.402343-12.722656-27.746094-12.722656-59.660157 0-87.402344l20.035156-43.703125zm0 0" fill="#faeed0"/><path d="m224.441406 0-20.035156 43.703125c-12.722656 27.742187-12.722656 59.65625 0 87.402344 12.71875 27.746093 12.71875 59.65625 0 87.402343-12.722656 27.746094-12.722656 59.660157 0 87.40625l20.035156 43.699219h-47.546875l-20.035156-43.699219c-12.722656-27.746093-12.722656-59.660156 0-87.40625 12.71875-27.746093 12.71875-59.65625 0-87.402343-12.722656-27.746094-12.722656-59.660157 0-87.402344l20.035156-43.703125zm0 0" fill="#f6d8a0"/><path d="m271.988281 0-20.039062 43.703125c-12.71875 27.742187-12.71875 59.65625 0 87.402344 12.722656 27.746093 12.722656 59.65625 0 87.402343-12.71875 27.746094-12.71875 59.660157 0 87.40625l20.039062 43.699219h-47.546875l-20.035156-43.699219c-12.722656-27.746093-12.722656-59.660156 0-87.40625 12.71875-27.746093 12.71875-59.65625 0-87.402343-12.722656-27.746094-12.722656-59.660157 0-87.402344l20.035156-43.703125zm0 0" fill="#faeed0"/><path d="m319.535156 0-20.039062 43.703125c-12.71875 27.742187-12.71875 59.65625 0 87.402344 12.722656 27.746093 12.722656 59.65625 0 87.402343-12.71875 27.746094-12.71875 59.660157 0 87.40625l20.039062 43.699219h-47.546875l-20.039062-43.699219c-12.71875-27.746093-12.71875-59.660156 0-87.40625 12.722656-27.746093 12.722656-59.65625 0-87.402343-12.71875-27.746094-12.71875-59.660157 0-87.402344l20.039062-43.703125zm0 0" fill="#f6d8a0"/><path d="m367.082031 0-20.039062 43.703125c-12.71875 27.742187-12.71875 59.65625 0 87.402344 12.722656 27.746093 12.722656 59.65625 0 87.402343-12.71875 27.746094-12.71875 59.660157 0 87.40625l20.039062 43.699219h-47.546875l-20.039062-43.699219c-12.71875-27.746093-12.71875-59.660156 0-87.40625 12.722656-27.746093 12.722656-59.65625 0-87.402343-12.71875-27.746094-12.71875-59.660157 0-87.402344l20.039062-43.703125zm0 0" fill="#faeed0"/><path d="m394.589844 305.910156c-12.71875-27.746094-12.71875-59.65625 0-87.402344 12.722656-27.746093 12.722656-59.65625 0-87.402343-12.71875-27.746094-12.71875-59.660157 0-87.40625l12.851562-28.027344c3.359375-7.324219-1.996094-15.671875-10.058594-15.671875h-30.300781l-20.039062 43.703125c-12.71875 27.742187-12.71875 59.65625 0 87.402344 12.722656 27.746093 12.722656 59.65625 0 87.402343-12.71875 27.746094-12.71875 59.660157 0 87.40625l20.039062 43.699219h47.546875zm0 0" fill="#f6d8a0"/><path d="m448.429688 36.667969-361.335938 50.84375c-5.007812.703125-8.523438 5.292969-7.898438 10.3125l1.84375 14.828125c.621094 5.015625 5.152344 8.605468 10.179688 8.0625l362.789062-39.164063c6.332032-.683593 10.875-6.421875 10.089844-12.742187l-2.765625-22.257813c-.789062-6.320312-6.597656-10.773437-12.902343-9.882812zm0 0" fill="#454f59"/><path d="m466.503906 275.863281c-2.003906 10.828125-5.183594 24.574219-10.253906 39.746094l-222.824219 27.480469-222.828125-27.480469c-5.066406-15.171875-8.25-28.917969-10.25-39.746094-2.34375-12.6875 7.429688-24.375 20.335938-24.375h425.484375c12.902343 0 22.675781 11.6875 20.335937 24.375zm0 0" fill="#ffd46a"/><path d="m51.804688 315.609375c-5.066407-15.171875-8.25-28.917969-10.25-39.746094-2.339844-12.6875 7.429687-24.375 20.335937-24.375h-41.207031c-12.90625 0-22.679688 11.6875-20.335938 24.375 2 10.828125 5.183594 24.574219 10.25 39.746094l222.828125 27.480469 20.605469-2.542969zm0 0" fill="#ffa92d"/><path d="m456.25 315.609375c-15.066406 45.195313-46.730469 103.089844-112.914062 134.660156h-219.820313c-66.1875-31.570312-97.847656-89.460937-112.917969-134.660156zm0 0" fill="#fc5c70"/><path d="m51.804688 315.609375h-41.207032c15.070313 45.195313 46.730469 103.089844 112.917969 134.660156h41.207031c-66.1875-31.570312-97.847656-89.464843-112.917968-134.660156zm0 0" fill="#f8485e"/><g fill="#454f59"><path d="m137.730469 389.519531c-4.265625 0-7.726563-3.457031-7.726563-7.726562v-17.316407c0-4.269531 3.460938-7.726562 7.726563-7.726562 4.269531 0 7.726562 3.457031 7.726562 7.726562v17.316407c0 4.269531-3.457031 7.726562-7.726562 7.726562zm0 0"/><path d="m329.121094 389.519531c-4.269532 0-7.726563-3.457031-7.726563-7.726562v-17.316407c0-4.269531 3.457031-7.726562 7.726563-7.726562 4.265625 0 7.726562 3.457031 7.726562 7.726562v17.316407c0 4.269531-3.460937 7.726562-7.726562 7.726562zm0 0"/><path d="m233.425781 398.765625c-11.433593 0-22.164062-4.773437-29.4375-13.089844-2.808593-3.214843-2.480469-8.097656.734375-10.902343 3.210938-2.808594 8.09375-2.480469 10.902344.730468 4.335938 4.960938 10.824219 7.808594 17.800781 7.808594 6.976563 0 13.464844-2.847656 17.800781-7.808594 2.808594-3.214844 7.6875-3.539062 10.902344-.730468 3.210938 2.808593 3.539063 7.6875.730469 10.902343-7.269531 8.316407-18 13.089844-29.433594 13.089844zm0 0"/></g></svg>