<svg height="511pt" viewBox="-41 0 511 511.99999" width="511pt" xmlns="http://www.w3.org/2000/svg"><path d="m290.582031 2.792969-18.5625-2.6953128c-5.285156-.7656252-10.148437 3.0117188-10.71875 8.3203128l-20.878906 195 22.695313 3.289062 35.378906-192.894531c.960937-5.253906-2.628906-10.253906-7.914063-11.019531zm0 0" fill="#454f59"/><path d="m420.34375 52.589844-16.773438-8.390625c-4.777343-2.390625-10.582031-.335938-12.789062 4.527343l-81.117188 178.550782 20.511719 10.257812 94.21875-171.996094c2.5625-4.683593.726563-10.5625-4.050781-12.949218zm0 0" fill="#454f59"/><path d="m329.125 184.441406-19.460938 42.835938 20.511719 10.257812 23.082031-42.140625c-7.367187-5.082031-15.53125-8.78125-24.132812-10.953125zm0 0" fill="#363f50"/><path d="m271.652344 160.152344c-7.289063-2.335938-14.988282-3.601563-22.871094-3.601563-1.121094 0-2.238281.03125-3.351562.082031l-5.011719 46.785157 22.695312 3.289062zm0 0" fill="#363f50"/><path d="m26.519531 321.65625c-11.640625-31.429688 10.828125-65.054688 44.320313-66.328125 1.273437-33.492187 34.898437-55.960937 66.328125-44.320313 13.992187-30.453124 53.65625-38.34375 78.238281-15.5625 24.582031-22.78125 64.246094-14.890624 78.238281 15.5625 31.429688-11.640624 65.054688 10.828126 66.328125 44.320313 33.492188 1.273437 55.957032 34.898437 44.320313 66.328125zm0 0" fill="#eee"/><path d="m409.554688 307.878906h-388.300782c-12.488281 0-22.128906 10.953125-20.59375 23.347656 12.980469 104.757813 111.515625 130.996094 111.515625 130.996094l103.230469 24.886719 103.230469-24.886719s98.53125-26.238281 111.511719-130.996094c1.539062-12.394531-8.101563-23.347656-20.59375-23.347656zm0 0" fill="#fc5c70"/><path d="m153.382812 462.222656s-98.53125-26.238281-111.515624-130.996094c-1.535157-12.394531 8.105468-23.351562 20.59375-23.351562h-41.207032c-12.488281 0-22.128906 10.957031-20.59375 23.351562 12.980469 104.757813 111.515625 130.996094 111.515625 130.996094l103.230469 24.886719 20.601562-4.964844zm0 0" fill="#f8485e"/><path d="m112.175781 462.222656v30.902344c0 10.425781 8.449219 18.875 18.875 18.875h168.710938c10.421875 0 18.875-8.453125 18.875-18.875v-30.902344zm0 0" fill="#454f59"/><path d="m153.382812 493.125v-30.902344h-41.207031v30.902344c0 10.425781 8.449219 18.875 18.875 18.875h41.207031c-10.425781 0-18.875-8.449219-18.875-18.875zm0 0" fill="#363f50"/><g fill="#454f59"><path d="m130.019531 391.652344c-4.269531 0-7.726562-3.457032-7.726562-7.722656v-15.457032c0-4.265625 3.457031-7.726562 7.726562-7.726562 4.265625 0 7.726563 3.460937 7.726563 7.726562v15.457032c0 4.265624-3.460938 7.722656-7.726563 7.722656zm0 0"/><path d="m300.792969 391.652344c-4.265625 0-7.726563-3.457032-7.726563-7.722656v-15.457032c0-4.265625 3.460938-7.726562 7.726563-7.726562s7.726562 3.460937 7.726562 7.726562v15.457032c0 4.265624-3.460937 7.722656-7.726562 7.722656zm0 0"/><path d="m215.40625 399.902344c-10.445312 0-20.246094-4.359375-26.894531-11.964844-2.804688-3.214844-2.480469-8.09375.734375-10.902344s8.09375-2.480468 10.902344.730469c3.710937 4.25 9.273437 6.683594 15.257812 6.683594s11.546875-2.433594 15.257812-6.683594c2.808594-3.210937 7.691407-3.539063 10.902344-.730469 3.210938 2.808594 3.539063 7.6875.730469 10.902344-6.644531 7.605469-16.449219 11.964844-26.890625 11.964844zm0 0"/></g><path d="m125.121094 283.742188c-3.207032 0-6.414063-1.222657-8.859375-3.671876-4.894531-4.890624-4.894531-12.824218 0-17.714843l18.878906-18.878907c4.890625-4.890624 12.824219-4.890624 17.714844 0 4.894531 4.894532 4.894531 12.824219 0 17.71875l-18.878907 18.875c-2.445312 2.449219-5.652343 3.671876-8.855468 3.671876zm0 0" fill="#dfdfdd"/><path d="m294.828125 283.742188c-3.207031 0-6.414063-1.222657-8.859375-3.671876-4.894531-4.890624-4.894531-12.824218 0-17.714843l18.878906-18.878907c4.890625-4.890624 12.824219-4.890624 17.714844 0 4.894531 4.894532 4.894531 12.824219 0 17.71875l-18.878906 18.875c-2.445313 2.449219-5.652344 3.671876-8.855469 3.671876zm0 0" fill="#dfdfdd"/><path d="m230.769531 265.703125c3.207031 0 6.410157-1.226563 8.859375-3.671875 4.890625-4.890625 4.890625-12.824219 0-17.714844l-18.878906-18.878906c-4.894531-4.890625-12.828125-4.890625-17.71875 0s-4.890625 12.824219 0 17.714844l18.878906 18.878906c2.445313 2.445312 5.652344 3.671875 8.859375 3.671875zm0 0" fill="#dfdfdd"/></svg>