<?xml version="1.0" encoding="iso-8859-1"?>
<!-- Generator: Adobe Illustrator 19.0.0, SVG Export Plug-In . SVG Version: 6.00 Build 0)  -->
<svg version="1.1" id="Capa_1" xmlns="http://www.w3.org/2000/svg" xmlns:xlink="http://www.w3.org/1999/xlink" x="0px" y="0px"
	 viewBox="0 0 512 512" style="enable-background:new 0 0 512 512;" xml:space="preserve">
<path style="fill:#704C48;" d="M84.226,199.071v-82.832h-52.4v82.832c0,11.585-4.349,22.792-12.27,31.624l0,0
	c-7.921,8.832-12.27,20.04-12.27,31.624v152.525c0,10.65,9.122,19.283,20.376,19.283H88.39c11.253,0,20.375-8.633,20.375-19.283
	V262.319c0-11.585-4.349-22.792-12.27-31.624l0,0C88.574,221.863,84.226,210.656,84.226,199.071z"/>
<path style="fill:#F5D66C;" d="M76.596,77.873h-37.14c-4.214,0-7.63,3.416-7.63,7.63v30.736h52.399V85.503
	C84.226,81.289,80.81,77.873,76.596,77.873z"/>
<path style="fill:#5B3E3C;" d="M96.496,230.695L96.496,230.695c-7.921-8.832-12.27-20.039-12.27-31.624V116.24H56.188v82.832
	c0,11.585,4.349,22.792,12.27,31.624l0,0c7.921,8.832,12.27,20.04,12.27,31.624v152.525c0,10.65-9.122,19.283-20.375,19.283H88.39
	c11.253,0,20.375-8.633,20.375-19.283V262.319C108.766,250.735,104.417,239.527,96.496,230.695z"/>
<rect x="7.287" y="278.04" style="fill:#F5D66C;" width="101.48" height="119.96"/>
<g>
	<path style="fill:#EDBC62;" d="M76.596,77.873H48.558c4.214,0,7.63,3.416,7.63,7.63v30.736h28.038V85.503
		C84.226,81.289,80.81,77.873,76.596,77.873z"/>
	<rect x="80.73" y="278.04" style="fill:#EDBC62;" width="28.04" height="119.96"/>
</g>
<path style="fill:#F5D66C;" d="M216.208,199.071v-82.832h-52.399v82.832c0,11.585-4.349,22.792-12.27,31.624l0,0
	c-7.921,8.832-12.27,20.04-12.27,31.624v152.525c0,10.65,9.122,19.283,20.376,19.283h60.728c11.253,0,20.375-8.633,20.375-19.283
	V262.319c0-11.585-4.349-22.792-12.27-31.624l0,0C220.557,221.863,216.208,210.656,216.208,199.071z"/>
<path style="fill:#D46466;" d="M208.579,77.873h-37.14c-4.214,0-7.63,3.416-7.63,7.63v30.736h52.399V85.503
	C216.208,81.289,212.793,77.873,208.579,77.873z"/>
<path style="fill:#EDBC62;" d="M228.478,230.695L228.478,230.695c-7.921-8.832-12.27-20.039-12.27-31.624V116.24h-30.503v82.832
	c0,11.585,4.348,22.792,12.27,31.624l0,0c7.921,8.832,12.27,20.04,12.27,31.624v152.525c0,10.65-9.122,19.283-20.375,19.283h30.504
	c11.253,0,20.375-8.633,20.375-19.283V262.319C240.748,250.735,236.4,239.527,228.478,230.695z"/>
<rect x="139.27" y="278.04" style="fill:#D46466;" width="101.48" height="119.96"/>
<g>
	<path style="fill:#C85665;" d="M208.579,77.873h-30.504c4.214,0,7.63,3.416,7.63,7.63v30.736h30.503V85.503
		C216.208,81.289,212.793,77.873,208.579,77.873z"/>
	<rect x="210.25" y="278.04" style="fill:#C85665;" width="30.503" height="119.96"/>
</g>
<path style="fill:#D68369;" d="M348.191,199.071v-82.832h-52.399v82.832c0,11.585-4.349,22.792-12.27,31.624l0,0
	c-7.921,8.832-12.27,20.04-12.27,31.624v152.525c0,10.65,9.122,19.283,20.376,19.283h60.728c11.253,0,20.375-8.633,20.375-19.283
	V262.319c0-11.585-4.349-22.792-12.27-31.624l0,0C352.54,221.863,348.191,210.656,348.191,199.071z"/>
<g>
	<path style="fill:#83524F;" d="M340.561,77.873h-37.14c-4.214,0-7.63,3.416-7.63,7.63v30.736h52.399V85.503
		C348.191,81.289,344.775,77.873,340.561,77.873z"/>
	<rect x="271.25" y="278.04" style="fill:#83524F;" width="101.48" height="119.96"/>
</g>
<path style="fill:#D16C4E;" d="M360.461,230.695L360.461,230.695c-7.921-8.832-12.27-20.039-12.27-31.624V116.24h-30.504v82.832
	c0,11.585,4.349,22.792,12.27,31.624l0,0c7.921,8.832,12.27,20.04,12.27,31.624v152.525c0,10.65-9.122,19.283-20.375,19.283h30.504
	c11.253,0,20.375-8.633,20.375-19.283V262.319C372.731,250.735,368.382,239.527,360.461,230.695z"/>
<path style="fill:#D46466;" d="M480.174,199.071v-82.832h-52.4v82.832c0,11.585-4.349,22.792-12.27,31.624l0,0
	c-7.921,8.832-12.27,20.04-12.27,31.624v152.525c0,10.65,9.122,19.283,20.376,19.283h60.728c11.253,0,20.375-8.633,20.375-19.283
	V262.319c0-11.585-4.349-22.792-12.27-31.624l0,0C484.522,221.863,480.174,210.656,480.174,199.071z"/>
<path style="fill:#F5D66C;" d="M472.544,77.873h-37.14c-4.214,0-7.63,3.416-7.63,7.63v30.736h52.4V85.503
	C480.174,81.289,476.758,77.873,472.544,77.873z"/>
<path style="fill:#C85665;" d="M492.444,230.695L492.444,230.695c-7.921-8.832-12.27-20.039-12.27-31.624V116.24H449.67v82.832
	c0,11.585,4.349,22.792,12.27,31.624l0,0c7.921,8.832,12.27,20.04,12.27,31.624v152.525c0,10.65-9.122,19.283-20.375,19.283h30.503
	c11.253,0,20.375-8.633,20.375-19.283V262.319C504.713,250.735,500.365,239.527,492.444,230.695z"/>
<path style="fill:#EDBC62;" d="M472.544,77.873H442.04c4.214,0,7.63,3.416,7.63,7.63v30.736h30.504V85.503
	C480.174,81.289,476.758,77.873,472.544,77.873z"/>
<rect x="403.23" y="278.04" style="fill:#F5D66C;" width="101.48" height="119.96"/>
<rect x="474.21" y="278.04" style="fill:#EDBC62;" width="30.504" height="119.96"/>
<g>
	<rect x="342.23" y="278.04" style="fill:#704C48;" width="30.504" height="119.96"/>
	<path style="fill:#704C48;" d="M340.561,77.873h-30.503c4.214,0,7.63,3.416,7.63,7.63v30.736h30.504V85.503
		C348.191,81.289,344.775,77.873,340.561,77.873z"/>
</g>
<circle style="fill:#D16C4E;" cx="57.6" cy="338.02" r="23.12"/>
<circle style="fill:#FCF0CB;" cx="190.01" cy="338.02" r="23.12"/>
<circle style="fill:#F5D66C;" cx="321.99" cy="338.02" r="23.12"/>
<circle style="fill:#83524F;" cx="453.97" cy="338.02" r="23.12"/>
<path d="M91.512,199.071v-82.832V85.503c0-8.225-6.691-14.917-14.916-14.917h-37.14c-8.225,0-14.916,6.692-14.916,14.917v30.736
	v82.832c0,9.772-3.696,19.276-10.407,26.759C5.019,235.991,0,248.949,0,262.32v15.717v119.964v16.843
	c0,14.65,12.409,26.569,27.662,26.569H88.39c15.253,0,27.662-11.919,27.662-26.569v-16.843V278.037V262.32
	c0-13.371-5.019-26.329-14.132-36.49C95.209,218.347,91.512,208.843,91.512,199.071z M39.113,85.503c0-0.19,0.154-0.343,0.343-0.343
	h37.14c0.189,0,0.343,0.154,0.343,0.343v23.45H39.113V85.503z M24.981,235.561c9.113-10.161,14.132-23.12,14.132-36.49v-75.546
	h37.826v75.546c0,13.369,5.019,26.328,14.132,36.49c6.712,7.482,10.407,16.986,10.407,26.759v8.431H14.573v-8.431
	C14.573,252.546,18.269,243.043,24.981,235.561z M101.479,390.714H14.573v-105.39h86.906V390.714z M88.39,426.841H27.662
	c-7.217,0-13.089-5.381-13.089-11.996v-9.557h86.906v9.557C101.479,421.46,95.608,426.841,88.39,426.841z"/>
<path d="M223.495,199.071v-82.832V85.503c0-8.225-6.691-14.917-14.916-14.917h-37.14c-8.225,0-14.917,6.692-14.917,14.917v30.736
	v82.832c0,9.773-3.696,19.276-10.407,26.759c-9.113,10.16-14.132,23.119-14.132,36.49v15.717v119.964v16.843
	c0,14.65,12.409,26.569,27.662,26.569h60.728c15.253,0,27.662-11.919,27.662-26.569v-16.843V278.037V262.32
	c0-13.371-5.019-26.33-14.132-36.49C227.191,218.347,223.495,208.843,223.495,199.071z M171.095,85.503
	c0-0.19,0.154-0.343,0.343-0.343h37.14c0.189,0,0.343,0.154,0.343,0.343v23.45h-37.826V85.503z M156.963,235.561
	c9.113-10.16,14.132-23.12,14.132-36.49v-75.546h37.826v75.546c0,13.369,5.019,26.328,14.132,36.49
	c6.712,7.482,10.408,16.985,10.408,26.759v8.431h-86.906v-8.431C146.555,252.546,150.251,243.043,156.963,235.561z M233.462,390.714
	h-86.906v-105.39h86.906V390.714z M220.373,426.841h-60.728c-7.217,0-13.089-5.381-13.089-11.996v-9.557h86.906v9.557
	C233.462,421.46,227.59,426.841,220.373,426.841z"/>
<path d="M355.478,199.071v-82.832V85.503c0-8.225-6.692-14.917-14.917-14.917h-37.14c-8.225,0-14.916,6.692-14.916,14.917v30.736
	v82.832c0,9.772-3.696,19.276-10.408,26.759c-9.113,10.159-14.132,23.119-14.132,36.49v15.717v119.964v16.843
	c0,14.65,12.409,26.569,27.662,26.569h60.728c15.253,0,27.662-11.919,27.662-26.569v-16.843V278.037V262.32
	c0-13.371-5.019-26.329-14.132-36.49C359.174,218.347,355.478,208.844,355.478,199.071z M303.078,85.503
	c0-0.19,0.154-0.343,0.343-0.343h37.14c0.189,0,0.343,0.154,0.343,0.343v23.45h-37.826L303.078,85.503L303.078,85.503z
	 M288.946,235.561c9.113-10.161,14.132-23.12,14.132-36.49v-75.546h37.826v75.546c0,13.37,5.019,26.329,14.132,36.49
	c6.712,7.482,10.408,16.986,10.408,26.759v8.431h-86.906v-8.431C278.538,252.546,282.234,243.043,288.946,235.561z M365.444,390.714
	h-86.906v-105.39h86.906V390.714z M352.355,426.841h-60.728c-7.217,0-13.089-5.381-13.089-11.996v-9.557h86.906v9.557
	C365.444,421.46,359.573,426.841,352.355,426.841z"/>
<path d="M497.868,225.83c-6.712-7.483-10.408-16.987-10.408-26.759v-82.832V85.503c0-8.225-6.691-14.917-14.916-14.917h-37.14
	c-8.225,0-14.916,6.692-14.916,14.917v30.736v82.832c0,9.772-3.696,19.276-10.408,26.759c-9.113,10.16-14.132,23.119-14.132,36.49
	v15.717v119.964v16.843c0,14.65,12.409,26.569,27.662,26.569h60.728c15.253,0,27.662-11.919,27.662-26.569v-16.843V278.037V262.32
	C512,248.949,506.981,235.991,497.868,225.83z M435.061,85.503c0-0.19,0.154-0.343,0.343-0.343h37.14
	c0.189,0,0.343,0.154,0.343,0.343v23.45h-37.826V85.503z M420.929,235.561c9.113-10.161,14.132-23.12,14.132-36.49v-75.546h37.826
	v75.546c0,13.369,5.019,26.328,14.132,36.49c6.712,7.482,10.408,16.986,10.408,26.759v8.431h-86.906v-8.431
	C410.521,252.546,414.217,243.043,420.929,235.561z M497.427,390.714h-86.906v-105.39h86.906V390.714z M484.338,426.841H423.61
	c-7.217,0-13.089-5.381-13.089-11.996v-9.557h86.906v9.557C497.427,421.46,491.556,426.841,484.338,426.841z"/>
<g>
</g>
<g>
</g>
<g>
</g>
<g>
</g>
<g>
</g>
<g>
</g>
<g>
</g>
<g>
</g>
<g>
</g>
<g>
</g>
<g>
</g>
<g>
</g>
<g>
</g>
<g>
</g>
<g>
</g>
</svg>
